<svg width="206" height="43" viewBox="0 0 206 43" fill="none" xmlns="http://www.w3.org/2000/svg">
<path d="M49.5107 34V8.54545H59.255C61.0945 8.54545 62.6232 8.83546 63.8413 9.41548C65.0676 9.98722 65.9832 10.7702 66.5881 11.7646C67.2012 12.7589 67.5078 13.8858 67.5078 15.1452C67.5078 16.181 67.3089 17.0676 66.9112 17.805C66.5135 18.5342 65.979 19.1267 65.3079 19.5824C64.6367 20.0381 63.8868 20.3654 63.0582 20.5643V20.8129C63.9614 20.8626 64.8273 21.1402 65.6559 21.6456C66.4928 22.1428 67.1764 22.8471 67.7067 23.7585C68.237 24.67 68.5021 25.772 68.5021 27.0646C68.5021 28.3821 68.1831 29.567 67.5451 30.6193C66.9071 31.6634 65.9459 32.4878 64.6616 33.0927C63.3772 33.6976 61.7615 34 59.8143 34H49.5107ZM54.1218 30.147H59.081C60.7547 30.147 61.9603 29.828 62.6978 29.19C63.4435 28.5437 63.8164 27.7151 63.8164 26.7042C63.8164 25.9502 63.63 25.2707 63.2571 24.6658C62.8842 24.0527 62.3539 23.5721 61.6662 23.2241C60.9785 22.8678 60.1581 22.6896 59.2053 22.6896H54.1218V30.147ZM54.1218 19.3711H58.6832C59.4787 19.3711 60.1954 19.2261 60.8335 18.9361C61.4715 18.6378 61.9728 18.2193 62.3374 17.6808C62.7102 17.1339 62.8967 16.4876 62.8967 15.7418C62.8967 14.7558 62.5487 13.9438 61.8526 13.3058C61.1649 12.6677 60.1416 12.3487 58.7827 12.3487H54.1218V19.3711ZM76.814 8.54545V34H72.3147V8.54545H76.814ZM89.7681 34.3729C87.9038 34.3729 86.288 33.9627 84.9208 33.1424C83.5536 32.3221 82.493 31.1745 81.739 29.6996C80.9933 28.2247 80.6204 26.5012 80.6204 24.5291C80.6204 22.5571 80.9933 20.8294 81.739 19.3462C82.493 17.863 83.5536 16.7113 84.9208 15.891C86.288 15.0707 87.9038 14.6605 89.7681 14.6605C91.6325 14.6605 93.2482 15.0707 94.6154 15.891C95.9826 16.7113 97.0391 17.863 97.7848 19.3462C98.5388 20.8294 98.9158 22.5571 98.9158 24.5291C98.9158 26.5012 98.5388 28.2247 97.7848 29.6996C97.0391 31.1745 95.9826 32.3221 94.6154 33.1424C93.2482 33.9627 91.6325 34.3729 89.7681 34.3729ZM89.793 30.7685C90.8039 30.7685 91.649 30.4909 92.3285 29.9357C93.0079 29.3723 93.5134 28.6183 93.8448 27.6737C94.1845 26.729 94.3544 25.6767 94.3544 24.5167C94.3544 23.3484 94.1845 22.2919 93.8448 21.3473C93.5134 20.3944 93.0079 19.6362 92.3285 19.0728C91.649 18.5094 90.8039 18.2276 89.793 18.2276C88.7572 18.2276 87.8955 18.5094 87.2077 19.0728C86.5283 19.6362 86.0187 20.3944 85.679 21.3473C85.3475 22.2919 85.1818 23.3484 85.1818 24.5167C85.1818 25.6767 85.3475 26.729 85.679 27.6737C86.0187 28.6183 86.5283 29.3723 87.2077 29.9357C87.8955 30.4909 88.7572 30.7685 89.793 30.7685ZM111.037 41.5568C109.421 41.5568 108.034 41.3372 106.873 40.8981C105.713 40.4672 104.781 39.8872 104.077 39.158C103.373 38.4289 102.884 37.621 102.61 36.7344L106.662 35.7525C106.844 36.1254 107.11 36.4941 107.458 36.8587C107.806 37.2315 108.274 37.5381 108.862 37.7784C109.459 38.027 110.209 38.1513 111.112 38.1513C112.388 38.1513 113.444 37.8406 114.281 37.2191C115.118 36.6059 115.536 35.5951 115.536 34.1864V30.5696H115.313C115.081 31.0336 114.741 31.5101 114.294 31.9989C113.854 32.4878 113.27 32.898 112.541 33.2294C111.82 33.5608 110.913 33.7266 109.819 33.7266C108.353 33.7266 107.023 33.3827 105.829 32.695C104.645 31.9989 103.7 30.9632 102.996 29.5877C102.3 28.204 101.952 26.4722 101.952 24.3924C101.952 22.296 102.3 20.527 102.996 19.0852C103.7 17.6352 104.649 16.5373 105.842 15.7915C107.035 15.0375 108.365 14.6605 109.832 14.6605C110.95 14.6605 111.87 14.8511 112.591 15.2322C113.32 15.6051 113.9 16.0567 114.331 16.587C114.762 17.109 115.089 17.602 115.313 18.0661H115.561V14.9091H119.998V34.3107C119.998 35.9431 119.609 37.2937 118.83 38.3626C118.051 39.4315 116.987 40.2311 115.636 40.7614C114.285 41.2917 112.752 41.5568 111.037 41.5568ZM111.074 30.1967C112.027 30.1967 112.839 29.9647 113.511 29.5007C114.182 29.0367 114.691 28.3697 115.039 27.4996C115.387 26.6296 115.561 25.5856 115.561 24.3675C115.561 23.1661 115.387 22.1138 115.039 21.2106C114.7 20.3074 114.194 19.6072 113.523 19.1101C112.86 18.6046 112.044 18.3519 111.074 18.3519C110.072 18.3519 109.235 18.6129 108.564 19.1349C107.893 19.657 107.387 20.3737 107.047 21.2852C106.708 22.1883 106.538 23.2158 106.538 24.3675C106.538 25.5359 106.708 26.5592 107.047 27.4375C107.396 28.3075 107.905 28.987 108.576 29.4759C109.256 29.9564 110.088 30.1967 111.074 30.1967ZM124.61 41.1591V14.9091H129.034V18.0661H129.295C129.527 17.602 129.855 17.109 130.277 16.587C130.7 16.0567 131.272 15.6051 131.992 15.2322C132.713 14.8511 133.633 14.6605 134.752 14.6605C136.227 14.6605 137.556 15.0375 138.741 15.7915C139.935 16.5373 140.879 17.6435 141.575 19.1101C142.28 20.5684 142.632 22.3582 142.632 24.4794C142.632 26.5758 142.288 28.3572 141.6 29.8239C140.912 31.2905 139.976 32.4091 138.791 33.1797C137.606 33.9503 136.264 34.3356 134.764 34.3356C133.67 34.3356 132.763 34.1533 132.042 33.7887C131.321 33.4241 130.741 32.985 130.302 32.4712C129.871 31.9492 129.536 31.4562 129.295 30.9922H129.109V41.1591H124.61ZM129.022 24.4545C129.022 25.6892 129.196 26.7705 129.544 27.6985C129.9 28.6265 130.41 29.3516 131.073 29.8736C131.744 30.3873 132.556 30.6442 133.509 30.6442C134.503 30.6442 135.336 30.379 136.007 29.8487C136.678 29.3101 137.184 28.5768 137.523 27.6488C137.871 26.7125 138.045 25.6477 138.045 24.4545C138.045 23.2696 137.876 22.2173 137.536 21.2976C137.196 20.3778 136.691 19.657 136.019 19.1349C135.348 18.6129 134.511 18.3519 133.509 18.3519C132.548 18.3519 131.731 18.6046 131.06 19.1101C130.389 19.6155 129.88 20.324 129.532 21.2354C129.192 22.1469 129.022 23.2199 129.022 24.4545ZM154.812 34.3729C152.948 34.3729 151.332 33.9627 149.965 33.1424C148.598 32.3221 147.537 31.1745 146.783 29.6996C146.037 28.2247 145.664 26.5012 145.664 24.5291C145.664 22.5571 146.037 20.8294 146.783 19.3462C147.537 17.863 148.598 16.7113 149.965 15.891C151.332 15.0707 152.948 14.6605 154.812 14.6605C156.676 14.6605 158.292 15.0707 159.659 15.891C161.027 16.7113 162.083 17.863 162.829 19.3462C163.583 20.8294 163.96 22.5571 163.96 24.5291C163.96 26.5012 163.583 28.2247 162.829 29.6996C162.083 31.1745 161.027 32.3221 159.659 33.1424C158.292 33.9627 156.676 34.3729 154.812 34.3729ZM154.837 30.7685C155.848 30.7685 156.693 30.4909 157.372 29.9357C158.052 29.3723 158.557 28.6183 158.889 27.6737C159.228 26.729 159.398 25.6767 159.398 24.5167C159.398 23.3484 159.228 22.2919 158.889 21.3473C158.557 20.3944 158.052 19.6362 157.372 19.0728C156.693 18.5094 155.848 18.2276 154.837 18.2276C153.801 18.2276 152.939 18.5094 152.252 19.0728C151.572 19.6362 151.063 20.3944 150.723 21.3473C150.391 22.2919 150.226 23.3484 150.226 24.5167C150.226 25.6767 150.391 26.729 150.723 27.6737C151.063 28.6183 151.572 29.3723 152.252 29.9357C152.939 30.4909 153.801 30.7685 154.837 30.7685ZM182.867 19.9553L178.766 20.4027C178.65 19.9884 178.447 19.599 178.157 19.2344C177.875 18.8698 177.494 18.5756 177.013 18.3519C176.533 18.1282 175.944 18.0163 175.248 18.0163C174.312 18.0163 173.525 18.2193 172.887 18.6254C172.257 19.0314 171.946 19.5575 171.955 20.2038C171.946 20.759 172.149 21.2106 172.564 21.5586C172.986 21.9066 173.682 22.1925 174.652 22.4162L177.908 23.1122C179.715 23.5017 181.057 24.119 181.935 24.9641C182.822 25.8093 183.269 26.9155 183.278 28.2827C183.269 29.4841 182.917 30.5447 182.221 31.4645C181.533 32.3759 180.576 33.0885 179.35 33.6023C178.124 34.116 176.715 34.3729 175.124 34.3729C172.787 34.3729 170.907 33.884 169.481 32.9062C168.056 31.9202 167.207 30.5489 166.933 28.7923L171.321 28.3697C171.52 29.2314 171.942 29.8819 172.589 30.321C173.235 30.7602 174.076 30.9798 175.112 30.9798C176.181 30.9798 177.038 30.7602 177.684 30.321C178.339 29.8819 178.666 29.3391 178.666 28.6928C178.666 28.146 178.455 27.6944 178.032 27.3381C177.618 26.9818 176.972 26.7083 176.094 26.5178L172.837 25.8342C171.006 25.453 169.651 24.8108 168.773 23.9077C167.895 22.9962 167.46 21.8445 167.468 20.4524C167.46 19.2758 167.779 18.2566 168.425 17.3949C169.079 16.5249 169.987 15.8537 171.147 15.3814C172.315 14.9008 173.662 14.6605 175.186 14.6605C177.423 14.6605 179.184 15.137 180.469 16.0898C181.761 17.0427 182.561 18.3312 182.867 19.9553ZM196.521 14.9091V18.3892H185.546V14.9091H196.521ZM188.255 10.3352H192.755V28.2578C192.755 28.8627 192.846 29.3267 193.028 29.6499C193.219 29.9647 193.467 30.1802 193.774 30.2962C194.08 30.4122 194.42 30.4702 194.793 30.4702C195.075 30.4702 195.332 30.4495 195.564 30.408C195.804 30.3666 195.986 30.3293 196.11 30.2962L196.869 33.8136C196.628 33.8964 196.284 33.9876 195.837 34.087C195.398 34.1864 194.859 34.2444 194.221 34.261C193.094 34.2942 192.079 34.1243 191.176 33.7514C190.273 33.3703 189.556 32.782 189.026 31.9865C188.504 31.1911 188.247 30.1967 188.255 29.0036V10.3352Z" fill="black"/>
<path d="M16.0523 17.7323C16.0523 17.7323 22.1348 17.7297 22.1484 17.7297C23.5565 17.7297 24.7086 16.6986 24.7319 15.2856C24.7544 13.8586 23.6159 12.5802 22.1889 12.5578L16.1332 12.5648C14.704 12.5512 13.5317 13.6809 13.5088 15.1074C13.4864 16.534 14.6253 17.7094 16.0523 17.7323Z" fill="black"/>
<path d="M27.5156 24.4055H15.4057C13.9786 24.4055 12.8213 25.5629 12.8213 26.9899C12.8213 28.4169 13.9786 29.5734 15.4057 29.5734H27.5156C28.9426 29.5734 30.1 28.4169 30.1 26.9899C30.1 25.5629 28.9426 24.4055 27.5156 24.4055Z" fill="black"/>
<path d="M21.5 0C9.62628 0 0 9.62584 0 21.5C0 33.3742 9.62628 43 21.5 43C33.3737 43 43 33.3742 43 21.5C43 9.62584 33.3737 0 21.5 0ZM33.774 33.8814C32.113 35.5921 29.7674 36.5084 26.9908 36.5313H26.9648H16.139C16.0708 36.5322 16.0026 36.5326 15.9353 36.5326C12.8235 36.5326 10.4216 35.6555 8.79707 33.9254C7.17209 32.1944 6.65125 29.8537 6.65125 26.6015C6.65433 26.3771 6.63278 26.159 6.64641 25.9434L6.65213 14.51C6.7863 11.6749 8.05321 9.92145 9.00691 8.91761C10.5479 7.29482 12.7262 6.47177 15.4826 6.47177H15.5592L22.6459 6.4665L22.7119 6.46826C27.3454 6.59671 30.6842 9.8216 30.7167 14.3081C30.8377 15.6555 30.7625 16.9017 30.4999 18.0261C32.0575 18.0723 33.9795 18.3451 35.2248 19.9542C36.3246 21.3751 36.3316 22.9908 36.3408 25.2264C36.3435 25.6839 36.3562 26.8487 36.3562 26.8487C36.3263 29.7428 35.4333 32.1754 33.774 33.8814Z" fill="black"/>
</svg>
